<svg xmlns="http://www.w3.org/2000/svg" width="32" height="32" viewBox="0 0 32 32" fill="none"><path d="M2.875 17H29.125C29.6428 17 30.0625 16.5803 30.0625 16.0625V0.937501C30.0625 0.41975 29.6428 0 29.125 0H2.875C2.35725 0 1.9375 0.41975 1.9375 0.937501V16.0625C1.9375 16.5803 2.35725 17 2.875 17ZM3.8125 1.875H28.1875V15.125H3.8125V1.875Z" fill="#363636"></path><path d="M31.7945 23.0065C30.1798 20.9885 27.2241 20.6603 25.2059 22.2747C24.3088 22.9923 23.6755 23.4759 23.1948 23.8029C22.5269 22.0276 20.802 20.7709 18.8125 20.7709C17.2094 20.7709 15.0493 20.697 12.5534 20.1197C10.1184 19.5609 8.76557 19.6929 6.42157 20.7499H0.937501C0.41975 20.7499 0 21.1697 0 21.6874V31.0625C0 31.5802 0.41975 32 0.937501 32H6.625C7.14275 32 7.5625 31.5802 7.5625 31.0625V30.1493C9.04807 29.7367 10.3253 29.6945 11.6314 30.0058C13.6721 30.4921 15.5836 30.7345 17.4038 30.7345C23.1097 30.7345 27.8594 28.3155 31.7415 24.2387C32.0648 23.8991 32.0875 23.3727 31.7945 23.0065ZM1.875 30.125V22.625H5.6875V30.125H1.875ZM12.0661 28.1819C10.5868 27.8293 9.15832 27.8358 7.5625 28.2137V22.2959C9.29413 21.5549 10.2191 21.5078 12.1325 21.9469C14.8116 22.5665 17.1097 22.646 18.8125 22.646C20.0188 22.646 21.0621 23.4149 21.4516 24.4955C21.4166 24.4972 14.125 24.5 14.125 24.5C13.6073 24.5 13.1875 24.9198 13.1875 25.4375C13.1875 25.9553 13.6073 26.375 14.125 26.375C14.125 26.375 21.3816 26.3748 21.3922 26.3745C22.9835 26.3208 23.8086 25.7936 26.3771 23.739C27.3655 22.9483 28.7286 22.9341 29.723 23.614C23.2474 29.9164 16.5769 29.2569 12.0661 28.1819Z" fill="#363636"></path><path d="M8.50001 5.625C9.01776 5.625 9.43751 5.20525 9.43751 4.6875C9.43751 4.16975 9.01776 3.75 8.50001 3.75H6.625C6.10725 3.75 5.6875 4.16975 5.6875 4.6875V12.3125C5.6875 12.8303 6.10725 13.25 6.625 13.25H8.50001C9.01776 13.25 9.43751 12.8303 9.43751 12.3125C9.43751 11.7948 9.01776 11.375 8.50001 11.375H7.5625V5.625H8.50001Z" fill="#363636"></path><path d="M25.375 3.75H23.5C22.9823 3.75 22.5625 4.16975 22.5625 4.6875C22.5625 5.20525 22.9823 5.625 23.5 5.625H24.4375V11.375H23.5C22.9823 11.375 22.5625 11.7948 22.5625 12.3125C22.5625 12.8303 22.9823 13.25 23.5 13.25H25.375C25.8928 13.25 26.3125 12.8303 26.3125 12.3125V4.6875C26.3125 4.16975 25.8928 3.75 25.375 3.75Z" fill="#363636"></path><path d="M16 3.75C13.409 3.75 11.3125 5.90832 11.3125 8.50001C11.3125 11.0911 13.4084 13.25 16 13.25C18.591 13.25 20.6875 11.0917 20.6875 8.50001C20.6875 5.90888 18.5916 3.75 16 3.75ZM16 11.375C14.4754 11.375 13.1875 10.0584 13.1875 8.50001C13.1875 6.94157 14.4754 5.625 16 5.625C17.5246 5.625 18.8125 6.94157 18.8125 8.50001C18.8125 10.0584 17.5246 11.375 16 11.375Z" fill="#363636"></path></svg>